<svg xmlns="http://www.w3.org/2000/svg" xmlns:xlink="http://www.w3.org/1999/xlink" viewBox="0 0 240 240"><defs><style>.cls-1{fill:#fff;}.cls-2{fill:url(#未命名的渐变_2);}</style><linearGradient id="未命名的渐变_2" x1="15" y1="65.97" x2="225" y2="65.97" gradientTransform="translate(0 54.03)" gradientUnits="userSpaceOnUse"><stop offset="0" stop-color="#fc00ff"/><stop offset="1" stop-color="#00dbde"/></linearGradient></defs><g id="图层_2" data-name="图层 2"><g id="图层_1-2" data-name="图层 1"><circle class="cls-1" cx="120" cy="120" r="120"/><path class="cls-2" d="M27.63,120A92.37,92.37,0,0,1,174.85,45.68a6.32,6.32,0,0,0,7.51-10.16A105,105,0,0,0,35.52,182.36a6.32,6.32,0,0,0,10.16-7.51A91.61,91.61,0,0,1,27.63,120Z"/><path class="cls-2" d="M204.48,57.64a6.32,6.32,0,0,0-10.16,7.51A92.37,92.37,0,0,1,65.15,194.32a6.32,6.32,0,0,0-7.51,10.16A105,105,0,0,0,204.48,57.64Z"/><path class="cls-2" d="M77.67,147.44a55.24,55.24,0,0,0,27.37-7.6,6.32,6.32,0,0,0-6.22-11c-8.54,4.83-17.24,6.74-25.86,5.67-7.12-.88-13.58-4.28-17.27-9.09a17.63,17.63,0,0,1-3.37-13.68C54.17,98.55,67,93.12,78.76,94.57c14.29,1.77,26.3,11.34,35.7,28.45v0c11.3,20.59,26.94,32.66,45.23,34.92a41.52,41.52,0,0,0,5.32.33,39.13,39.13,0,0,0,20-5.31,31.26,31.26,0,0,0,15.14-23,30.27,30.27,0,0,0-5.86-23.13c-5.79-7.55-15.17-12.63-25.74-13.94-11.37-1.41-22.68,1-33.63,7.21a6.32,6.32,0,1,0,6.22,11c8.54-4.83,17.24-6.74,25.86-5.67,7.12.88,13.58,4.28,17.27,9.09a17.63,17.63,0,0,1,3.37,13.68c-1.85,13.19-14.7,18.62-26.44,17.17-14.29-1.77-26.3-11.34-35.7-28.45v0C114.24,96.37,98.6,84.3,80.31,82A40,40,0,0,0,55,87a31.26,31.26,0,0,0-15.14,23,30.27,30.27,0,0,0,5.86,23.13c5.79,7.55,15.17,12.63,25.74,13.94A50.58,50.58,0,0,0,77.67,147.44Z"/></g></g></svg>